<svg xmlns="http://www.w3.org/2000/svg" width="120" height="104" viewBox="0 0 120 104">
  <defs><linearGradient id="h" x1="0" y1="0" x2="0" y2="1"><stop offset="0" stop-color="#8a5a3a"/><stop offset="1" stop-color="#4a2e1c"/></linearGradient></defs>
  <path d="M8 100 C 8 50, 30 12, 60 8 C 90 12, 112 50, 112 100 Z" fill="url(#h)" stroke="#2a180e" stroke-width="2"/>
  <path d="M40 100 C 40 78, 48 66, 60 66 C 72 66, 80 78, 80 100 Z" fill="#160c06"/>
  <g stroke="#2a180e" stroke-width="1.2" fill="none" opacity="0.6">
    <path d="M16 70 C 40 62, 80 62, 104 70"/><path d="M12 86 C 40 78, 80 78, 108 86"/><path d="M24 52 C 44 44, 76 44, 96 52"/><path d="M34 36 C 50 30, 70 30, 86 36"/>
  </g>
  <path d="M60 8 C 62 16, 58 22, 60 30" stroke="#c89a70" stroke-width="2" fill="none"/>
</svg>
